<svg width="33" height="33" viewBox="0 0 33 33" fill="none" xmlns="http://www.w3.org/2000/svg">
<g clip-path="url(#clip0_115_84)">
<path d="M16.5 0C7.3873 0 0 7.3873 0 16.5C0 25.6127 7.3873 33 16.5 33C25.6127 33 33 25.6127 33 16.5C33 7.3873 25.6127 0 16.5 0ZM11.5898 4.75509C13.4762 3.96471 15.5571 3.6416 17.6072 3.82052C19.9727 4.0271 22.2094 4.88452 24.0872 6.27999L24.0691 5.08703L26.0025 5.05783L26.0673 9.34835L21.7804 9.73874L21.605 7.81307L22.7626 7.70769C21.2064 6.59813 19.3736 5.91577 17.439 5.74683C13.9779 5.44461 10.5604 6.84151 8.2966 9.48357L6.82829 8.22544C8.11839 6.71975 9.76491 5.51977 11.5898 4.75509ZM22.4031 12.0338L19.2739 20.9662H17.6714L20.8006 12.0338H22.4031ZM11.242 18.7474V17.5241L14.2195 13.3803H16.1634L13.461 17.2586H14.8075V16.1302H16.5807V17.2586H17.5668V18.7474H16.5807V20.018H14.7505V18.7474H11.242ZM7.68571 14.7647C7.20212 14.7647 6.7659 14.9828 6.50042 15.4095L5.10649 14.632C5.6091 13.7975 6.54779 13.2475 7.85638 13.2475C9.38309 13.2475 10.4356 14.0345 10.4356 15.2673C10.4356 15.9121 10.2555 16.5 9.30716 17.3724L8.05548 18.5292H10.6158V20.018H5.4479V18.8422L7.93231 16.5189C8.46334 16.0259 8.5392 15.7224 8.5392 15.4474C8.5392 15.0207 8.25471 14.7647 7.68571 14.7647ZM21.4102 28.2449C19.8622 28.8935 18.1833 29.2275 16.4977 29.2275C16.1293 29.2275 15.7606 29.2116 15.3928 29.1794C13.0273 28.9728 10.7906 28.1154 8.9129 26.72L8.93088 27.9129L6.99755 27.9421L6.93271 23.6517L11.2196 23.2613L11.395 25.1869L10.2374 25.2923C11.7936 26.4019 13.6264 27.0842 15.561 27.2532C19.0222 27.5555 22.4395 26.1585 24.7033 23.5164L26.1716 24.7746C24.8815 26.2802 23.2351 27.4802 21.4102 28.2449ZM27.8934 14.5561L25.5513 20.018H23.5031L25.741 14.869H23.9962V15.8931H22.3937V13.3803H27.8934V14.5561Z" fill="url(#paint0_linear_115_84)"/>
</g>
<defs>
<linearGradient id="paint0_linear_115_84" x1="16.5" y1="0" x2="31.0065" y2="44.0882" gradientUnits="userSpaceOnUse">
<stop stop-color="#5383FF"/>
<stop offset="1" stop-color="#00C2FF"/>
</linearGradient>
<clipPath id="clip0_115_84">
<rect width="33" height="33" fill="white"/>
</clipPath>
</defs>
</svg>
