<svg width="37" height="37" viewBox="0 0 37 37" fill="none" xmlns="http://www.w3.org/2000/svg">
<path d="M35.3396 20.5759L34.7068 19.6545C34.1296 18.9034 34.1296 17.8673 34.7068 17.1162L35.3396 16.1948C36.0907 15.1551 35.7429 13.6565 34.5921 13.0201L33.6116 12.502C32.8012 12.0395 32.3424 11.1774 32.5163 10.2523L32.6866 9.15707C32.9196 7.8879 31.9391 6.67793 30.6699 6.61874L29.5746 6.56323C28.6496 6.50401 27.843 5.87129 27.6136 5.00544L27.3249 3.91019C26.9771 2.64103 25.5932 2.00458 24.3833 2.5263L23.3436 2.98514C22.4777 3.33296 21.4971 3.15904 20.8644 2.46711L20.1133 1.66047C19.2511 0.679909 17.6934 0.679909 16.8867 1.66047L16.1355 2.5263C15.5028 3.21826 14.5223 3.44767 13.6564 3.09985L12.6167 2.69652C11.4067 2.17851 10.0229 2.87044 9.67502 4.1396L9.27171 5.12014C9.04226 6.04149 8.23564 6.67793 7.31059 6.73344L6.21535 6.79264C4.89065 6.85183 3.9656 8.0618 4.19871 9.33097L4.42812 10.4262C4.60202 11.3476 4.1395 12.2726 3.33288 12.7314L2.35232 13.2532C1.19786 13.8859 0.909237 15.3845 1.66039 16.4243L2.29311 17.3456C2.87036 18.0967 2.87036 19.1328 2.29311 19.8839L1.66039 20.8053C0.909237 21.845 1.25708 23.3436 2.40783 23.98L3.38835 24.4981C4.19871 24.9606 4.65758 25.8227 4.48364 26.7478L4.3134 27.843C4.08033 29.1122 5.06084 30.3222 6.33003 30.3814L7.42532 30.4369C8.35037 30.4961 9.15698 31.1288 9.38639 31.9947L9.67502 33.0899C10.0229 34.3591 11.4067 34.9955 12.6167 34.4738L13.6564 34.015C14.5223 33.6671 15.4991 33.841 16.1355 34.533L16.8867 35.3396C17.7488 36.3202 19.3066 36.3202 20.1133 35.3396L20.8644 34.4738C21.4971 33.7819 22.4777 33.5524 23.3436 33.9003L24.3833 34.3036C25.5932 34.8216 26.9771 34.1297 27.3249 32.8605L27.6136 31.7652C27.843 30.8439 28.6496 30.2075 29.5746 30.1483L30.6699 30.0927C31.9946 30.0336 32.9196 28.8236 32.6866 27.5544L32.5718 26.5739C32.3979 25.6525 32.8604 24.7275 33.6671 24.2686L34.6476 23.7469C35.8021 23.1142 36.0907 21.6156 35.3396 20.5759ZM18.5 29.8633C12.2133 29.8633 7.13669 24.7867 7.13669 18.5001C7.13669 12.2134 12.2133 7.13675 18.5 7.13675C24.7866 7.13675 29.8633 12.2134 29.8633 18.5001C29.8633 24.7867 24.7866 29.8633 18.5 29.8633Z" fill="url(#paint0_linear_113_73)"/>
<path d="M24.8495 16.5499L19.5206 21.8789L18.0275 23.3669C17.2482 24.1512 15.916 24.1512 15.1318 23.3669L13.6437 21.8789L12.1506 20.4712C11.3714 19.6869 11.3714 18.3547 12.1506 17.49C12.5427 17.1029 13.0705 16.9069 13.6135 16.9069C14.1514 16.9069 14.6994 17.1029 15.1318 17.49L16.5394 18.9027L21.8683 13.5738C22.6525 12.7895 23.9847 12.7895 24.8495 13.5738C25.6286 14.358 25.6286 15.6903 24.8495 16.5499Z" fill="url(#paint1_linear_113_73)"/>
<defs>
<linearGradient id="paint0_linear_113_73" x1="18.5" y1="0.925049" x2="34.1807" y2="47.7146" gradientUnits="userSpaceOnUse">
<stop stop-color="#5383FF"/>
<stop offset="1" stop-color="#00C2FF"/>
</linearGradient>
<linearGradient id="paint1_linear_113_73" x1="18.5" y1="12.9856" x2="22.4591" y2="28.1971" gradientUnits="userSpaceOnUse">
<stop stop-color="#5383FF"/>
<stop offset="1" stop-color="#00C2FF"/>
</linearGradient>
</defs>
</svg>
