<svg width="40" height="40" viewBox="0 0 40 40" fill="none" xmlns="http://www.w3.org/2000/svg">
<path d="M15.9245 16.1514C16.1472 16.1513 16.3607 16.0627 16.5182 15.9053C16.6756 15.7478 16.7642 15.5343 16.7644 15.3116V9.53918L10.421 16.1517L15.9245 16.1514Z" fill="url(#paint0_linear_115_107)"/>
<path d="M25.2237 8.81667C25.2237 8.76373 25.2306 8.71242 25.2316 8.65967H18.4196C18.4354 8.71087 18.4461 8.76353 18.4514 8.81686V15.3116C18.4506 15.9815 18.1842 16.6238 17.7105 17.0975C17.2367 17.5713 16.5944 17.8377 15.9245 17.8384H9.612V36.8358C9.612 37.279 9.78805 37.704 10.1014 38.0174C10.4148 38.3307 10.8398 38.5068 11.283 38.5068H32.1838C32.627 38.5068 33.052 38.3307 33.3654 38.0174C33.6788 37.704 33.8548 37.279 33.8548 36.8358V16.183C32.7884 16.3603 31.6962 16.3022 30.6546 16.0129C29.613 15.7236 28.6473 15.2101 27.825 14.5083C27.0028 13.8066 26.3439 12.9335 25.8945 11.9504C25.4451 10.9672 25.2163 9.89765 25.2237 8.81667ZM24.1049 34.0994H21.6161C20.9417 34.0986 20.2916 33.8474 19.7919 33.3945C19.2922 32.9416 18.9785 32.3193 18.9116 31.6483L15.482 33.9563C15.2963 34.0813 15.0687 34.1274 14.849 34.0844C14.6294 34.0415 14.4358 33.9131 14.3108 33.7275C14.1858 33.5418 14.1397 33.3141 14.1827 33.0945C14.2256 32.8749 14.354 32.6813 14.5396 32.5563L18.3209 30.0125C18.5396 29.8652 18.7943 29.7802 19.0576 29.7665C19.321 29.7529 19.583 29.8112 19.8158 29.9351C20.0486 30.0591 20.2432 30.244 20.3788 30.4702C20.5145 30.6963 20.5861 30.9551 20.5859 31.2188V31.383C20.5863 31.656 20.695 31.9177 20.8881 32.1107C21.0813 32.3037 21.343 32.4123 21.6161 32.4125H24.1051C24.2176 32.4098 24.3295 32.4296 24.4342 32.4708C24.5389 32.5119 24.6344 32.5736 24.7149 32.6522C24.7954 32.7308 24.8594 32.8247 24.9031 32.9284C24.9468 33.0321 24.9694 33.1435 24.9694 33.256C24.9694 33.3686 24.9468 33.48 24.9031 33.5837C24.8594 33.6874 24.7954 33.7813 24.7149 33.8599C24.6344 33.9385 24.5389 34.0002 24.4342 34.0413C24.3295 34.0825 24.2174 34.1022 24.1049 34.0994ZM24.1049 26.6843H14.3632C14.1429 26.6793 13.9332 26.5882 13.7791 26.4306C13.625 26.2729 13.5387 26.0612 13.5387 25.8408C13.5387 25.6203 13.625 25.4086 13.7791 25.251C13.9332 25.0933 14.1429 25.0022 14.3632 24.9972H24.1051C24.3255 25.0022 24.5351 25.0933 24.6892 25.251C24.8433 25.4086 24.9296 25.6203 24.9296 25.8408C24.9296 26.0612 24.8433 26.2729 24.6892 26.4306C24.5351 26.5882 24.3253 26.6793 24.1049 26.6843ZM28.8062 34.0994H27.5243C27.3041 34.0941 27.0948 34.0028 26.9409 33.8452C26.7871 33.6876 26.701 33.4761 26.701 33.2559C26.701 33.0357 26.7871 32.8242 26.9409 32.6666C27.0948 32.509 27.3041 32.4178 27.5243 32.4124H28.8062C29.0264 32.4178 29.2357 32.509 29.3895 32.6666C29.5434 32.8242 29.6295 33.0357 29.6295 33.2559C29.6295 33.4761 29.5434 33.6876 29.3895 33.8452C29.2357 34.0028 29.0264 34.0941 28.8062 34.0994ZM28.8062 22.7664H14.3632C14.1431 22.7611 13.9338 22.6698 13.7799 22.5122C13.6261 22.3546 13.54 22.1431 13.54 21.9229C13.54 21.7027 13.6261 21.4912 13.7799 21.3336C13.9338 21.176 14.1431 21.0848 14.3632 21.0794H28.8062C29.0264 21.0848 29.2357 21.176 29.3895 21.3336C29.5434 21.4912 29.6295 21.7027 29.6295 21.9229C29.6295 22.1431 29.5434 22.3546 29.3895 22.5122C29.2357 22.6698 29.0264 22.7611 28.8062 22.7664Z" fill="url(#paint1_linear_115_107)"/>
<path d="M9.27355 8.43466V2.66248L2.93036 9.27454H8.43373C8.65642 9.27434 8.86992 9.18579 9.02737 9.02832C9.18483 8.87086 9.27336 8.65735 9.27355 8.43466Z" fill="url(#paint2_linear_115_107)"/>
<path d="M17.6082 6.97221H25.4637C25.6533 6.22898 25.957 5.51966 26.364 4.86952V3.45396C26.364 3.01078 26.188 2.58576 25.8746 2.27238C25.5612 1.95901 25.1362 1.78296 24.693 1.78296H10.9288C10.9447 1.83409 10.9553 1.88669 10.9606 1.93996V8.43471C10.9599 9.10466 10.6934 9.74697 10.2197 10.2207C9.74597 10.6944 9.10367 10.9609 8.43372 10.9616H2.12122V29.9591C2.12122 30.4023 2.29727 30.8273 2.61064 31.1407C2.92401 31.454 3.34904 31.6301 3.79222 31.6301H7.92459V16.995C7.92457 16.5596 8.09286 16.141 8.39428 15.8268L16.3904 7.49146C16.5479 7.32729 16.737 7.19665 16.9463 7.10742C17.1555 7.01819 17.3807 6.9722 17.6082 6.97221Z" fill="url(#paint3_linear_115_107)"/>
<path d="M32.6903 3.03748C31.5473 3.03746 30.4299 3.37639 29.4796 4.01139C28.5292 4.6464 27.7885 5.54896 27.3511 6.60494C26.9136 7.66093 26.7992 8.82291 27.0222 9.94394C27.2452 11.065 27.7955 12.0947 28.6038 12.9029C29.412 13.7112 30.4417 14.2616 31.5627 14.4846C32.6838 14.7075 33.8457 14.5931 34.9017 14.1557C35.9577 13.7183 36.8603 12.9776 37.4953 12.0272C38.1303 11.0769 38.4693 9.95953 38.4693 8.81654C38.4693 7.28385 37.8604 5.81393 36.7766 4.73015C35.6929 3.64636 34.223 3.03749 32.6903 3.03748ZM35.9923 7.49898L32.6938 11.3062C32.6145 11.3976 32.5166 11.4708 32.4066 11.5211C32.2967 11.5713 32.1772 11.5973 32.0563 11.5974H32.0538C31.9325 11.597 31.8127 11.5706 31.7026 11.5198C31.5924 11.4691 31.4944 11.3952 31.4154 11.3032L29.8596 9.48798C29.7139 9.31801 29.6417 9.09712 29.6589 8.87392C29.676 8.65072 29.7812 8.44347 29.9511 8.29779C30.1211 8.1521 30.342 8.0799 30.5652 8.09707C30.7884 8.11424 30.9956 8.21938 31.1413 8.38935L32.0601 9.4611L34.7169 6.3941C34.7895 6.31034 34.8778 6.24169 34.9769 6.19207C35.076 6.14244 35.1838 6.11282 35.2943 6.10489C35.4049 6.09695 35.5159 6.11086 35.621 6.14583C35.7261 6.18079 35.8234 6.23612 35.9071 6.30866C35.9909 6.3812 36.0595 6.46953 36.1092 6.5686C36.1588 6.66767 36.1884 6.77554 36.1963 6.88606C36.2043 6.99658 36.1904 7.10758 36.1554 7.21272C36.1204 7.31787 36.0648 7.41522 35.9923 7.49898Z" fill="url(#paint4_linear_115_107)"/>
<defs>
<linearGradient id="paint0_linear_115_107" x1="13.5927" y1="9.53918" x2="16.5974" y2="18.2994" gradientUnits="userSpaceOnUse">
<stop stop-color="#5383FF"/>
<stop offset="1" stop-color="#00C2FF"/>
</linearGradient>
<linearGradient id="paint1_linear_115_107" x1="21.7334" y1="8.65967" x2="37.1122" y2="46.6228" gradientUnits="userSpaceOnUse">
<stop stop-color="#5383FF"/>
<stop offset="1" stop-color="#00C2FF"/>
</linearGradient>
<linearGradient id="paint2_linear_115_107" x1="6.10195" y1="2.66248" x2="9.10635" y2="11.4221" gradientUnits="userSpaceOnUse">
<stop stop-color="#5383FF"/>
<stop offset="1" stop-color="#00C2FF"/>
</linearGradient>
<linearGradient id="paint3_linear_115_107" x1="14.2426" y1="1.78296" x2="29.6214" y2="39.7461" gradientUnits="userSpaceOnUse">
<stop stop-color="#5383FF"/>
<stop offset="1" stop-color="#00C2FF"/>
</linearGradient>
<linearGradient id="paint4_linear_115_107" x1="32.6902" y1="3.03748" x2="37.771" y2="18.4792" gradientUnits="userSpaceOnUse">
<stop stop-color="#5383FF"/>
<stop offset="1" stop-color="#00C2FF"/>
</linearGradient>
</defs>
</svg>
