<svg width="25" height="26" viewBox="0 0 25 26" fill="none" xmlns="http://www.w3.org/2000/svg">
<path fill-rule="evenodd" clip-rule="evenodd" d="M16.8328 14.2281L21.9867 20.6359C21.7063 20.7516 21.4031 20.8125 21.0938 20.8125C17.3102 20.8125 7.68984 20.8125 3.90625 20.8125C3.59687 20.8125 3.29375 20.7516 3.01328 20.6359L8.16719 14.2281C8.88047 14.9383 9.85078 15.3438 10.8695 15.3438H14.1305C15.1492 15.3438 16.1188 14.9383 16.8328 14.2281ZM1.84844 6.40937L7.15 13L1.84844 19.5906C1.6625 19.2492 1.5625 18.8641 1.5625 18.4688C1.5625 15.7633 1.5625 10.2367 1.5625 7.53125C1.5625 7.13594 1.6625 6.75078 1.84844 6.40937ZM23.1516 6.40937C23.3375 6.75078 23.4375 7.13594 23.4375 7.53125V18.4688C23.4375 18.8641 23.3375 19.2492 23.1516 19.5906L17.85 13L23.1516 6.40937ZM3.01328 5.36406C3.29375 5.24844 3.59687 5.1875 3.90625 5.1875H21.0938C21.4031 5.1875 21.7063 5.24844 21.9867 5.36406L15.8969 12.9352C15.4664 13.4703 14.8172 13.7812 14.1305 13.7812C13.1469 13.7812 11.8531 13.7812 10.8695 13.7812C10.1828 13.7812 9.53359 13.4703 9.10313 12.9352L3.01328 5.36406Z" fill="white"/>
</svg>
