<svg width="49" height="50" viewBox="0 0 49 50" fill="none" xmlns="http://www.w3.org/2000/svg">
<g clip-path="url(#clip0_208_449)">
<path d="M24.4988 0.5C14.5527 0.5 6.45996 8.5927 6.45996 18.5398C6.45996 21.1344 6.99102 23.6117 8.03758 25.9034C12.5478 35.7728 21.1951 46.1928 23.7386 49.151C23.9291 49.3721 24.2069 49.4995 24.4993 49.4995C24.7916 49.4995 25.0695 49.3721 25.26 49.151C27.8025 46.1933 36.4498 35.7738 40.9615 25.9034C42.0086 23.6117 42.5391 21.1344 42.5391 18.5398C42.5381 8.5927 34.4454 0.5 24.4988 0.5ZM24.4988 27.9098C19.3322 27.9098 15.1283 23.706 15.1283 18.5393C15.1283 13.3722 19.3322 9.16839 24.4988 9.16839C29.6654 9.16839 33.8692 13.3722 33.8692 18.5393C33.8697 23.706 29.6659 27.9098 24.4988 27.9098Z" fill="url(#paint0_linear_208_449)"/>
</g>
<defs>
<linearGradient id="paint0_linear_208_449" x1="24.4995" y1="0.5" x2="51.5236" y2="60.9748" gradientUnits="userSpaceOnUse">
<stop stop-color="#5383FF"/>
<stop offset="1" stop-color="#00C2FF"/>
</linearGradient>
<clipPath id="clip0_208_449">
<rect width="49" height="49" fill="white" transform="translate(0 0.5)"/>
</clipPath>
</defs>
</svg>
