<svg width="36" height="36" viewBox="0 0 36 36" fill="none" xmlns="http://www.w3.org/2000/svg">
<g clip-path="url(#clip0_115_114)">
<path d="M33.0206 18C33.0109 20.926 32.0989 23.7779 30.4091 26.1667L32.5462 28.3038C33.9272 26.4801 34.929 24.3983 35.4926 22.1811C36.0561 19.964 36.17 17.6565 35.8275 15.3946C35.485 13.1328 34.6931 10.9624 33.4984 9.01153C32.3037 7.06065 30.7304 5.36874 28.8714 4.0356C28.7917 3.97763 28.7014 3.93597 28.6056 3.91299C28.5098 3.89 28.4104 3.88616 28.313 3.90167C28.2157 3.91719 28.1225 3.95175 28.0386 4.00339C27.9546 4.05503 27.8817 4.12273 27.824 4.20259L26.9437 5.41695C26.827 5.57802 26.7791 5.7788 26.8104 5.97519C26.8417 6.17158 26.9497 6.3475 27.1107 6.46431C28.935 7.78549 30.4212 9.51909 31.4483 11.5238C32.4753 13.5285 33.014 15.7475 33.0206 18Z" fill="url(#paint0_linear_115_114)"/>
<path d="M23.1518 11.0201C24.9143 12.1189 26.1952 13.8447 26.7365 15.8499C27.2779 17.8551 27.0396 19.991 26.0696 21.8276L28.2546 24.0126C29.0531 22.7651 29.5961 21.3716 29.8521 19.9127C30.1081 18.4539 30.0719 16.9587 29.7458 15.514C29.4197 14.0692 28.81 12.7035 27.9522 11.4961C27.0944 10.2886 26.0054 9.26349 24.7485 8.48003C24.6654 8.42697 24.5726 8.39112 24.4755 8.37463C24.3783 8.35814 24.2788 8.36134 24.183 8.38403C24.0869 8.40582 23.996 8.44634 23.9156 8.50327C23.8351 8.5602 23.7667 8.63243 23.7142 8.71582L22.9159 9.98584C22.8634 10.0692 22.8279 10.1621 22.8114 10.2593C22.7949 10.3564 22.7977 10.4558 22.8196 10.5518C22.8415 10.6479 22.8821 10.7387 22.9391 10.819C22.9961 10.8994 23.0684 10.9677 23.1518 11.0201Z" fill="url(#paint1_linear_115_114)"/>
<path d="M24.0205 18C24.0221 17.1817 23.8306 16.3745 23.4613 15.6442C23.0921 14.914 22.5557 14.2812 21.8957 13.7973C21.7362 13.679 21.5363 13.6287 21.3397 13.6574C21.1432 13.6861 20.966 13.7914 20.8469 13.9504L19.9504 15.1531C19.8639 15.2766 19.8173 15.4237 19.8167 15.5745L23.7664 19.5242C23.9268 19.0317 24.0124 18.5179 24.0205 18Z" fill="url(#paint2_linear_115_114)"/>
<path d="M19.5 3.74995C19.5 3.60655 19.4589 3.46616 19.3815 3.34543C19.3041 3.2247 19.1937 3.12869 19.0635 3.06879C18.9332 3.00889 18.7884 2.98761 18.6464 3.00747C18.5044 3.02734 18.3711 3.08752 18.2622 3.18087L12.4255 8.18337L19.5 15.2578V3.74995Z" fill="url(#paint3_linear_115_114)"/>
<path d="M2.34083 0.219702C2.2712 0.15005 2.18854 0.0947969 2.09756 0.0570998C2.00657 0.0194027 1.90906 0 1.81058 0C1.71209 0 1.61458 0.0194027 1.52359 0.0570998C1.43261 0.0947969 1.34995 0.15005 1.28033 0.219702L0.219825 1.2802C0.150173 1.34982 0.0949203 1.43249 0.0572232 1.52347C0.0195262 1.61445 0.000123437 1.71197 0.000123437 1.81045C0.000123437 1.90893 0.0195262 2.00645 0.0572232 2.09743C0.0949203 2.18842 0.150173 2.27108 0.219825 2.3407L8.99899 11.1201L7.97241 12H0.75C0.651493 11.9999 0.55394 12.0193 0.46292 12.057C0.3719 12.0946 0.289198 12.1499 0.219543 12.2195C0.149887 12.2892 0.0946448 12.3719 0.056974 12.4629C0.0193032 12.5539 -5.70578e-05 12.6515 1.26308e-07 12.75V23.25C-5.70578e-05 23.3485 0.0193032 23.446 0.056974 23.5371C0.0946448 23.6281 0.149887 23.7108 0.219543 23.7804C0.289198 23.8501 0.3719 23.9053 0.46292 23.943C0.55394 23.9807 0.651493 24 0.75 24H7.97241L18.2622 32.8191C18.3711 32.9124 18.5044 32.9726 18.6464 32.9925C18.7884 33.0123 18.9332 32.991 19.0634 32.9311C19.1937 32.8712 19.3041 32.7752 19.3815 32.6545C19.4589 32.5338 19.5 32.3934 19.5 32.25V21.6211L33.6592 35.7803C33.7288 35.8499 33.8115 35.9052 33.9024 35.9429C33.9934 35.9806 34.0909 36 34.1894 36C34.2879 36 34.3854 35.9806 34.4764 35.9429C34.5674 35.9052 34.6501 35.8499 34.7197 35.7803L35.7802 34.7198C35.8498 34.6501 35.9051 34.5675 35.9428 34.4765C35.9805 34.3855 35.9999 34.288 35.9999 34.1895C35.9999 34.091 35.9805 33.9935 35.9428 33.9025C35.9051 33.8115 35.8498 33.7289 35.7802 33.6593L2.34083 0.219702Z" fill="url(#paint4_linear_115_114)"/>
</g>
<defs>
<linearGradient id="paint0_linear_115_114" x1="31.4108" y1="3.89233" x2="49.3128" y2="24.4408" gradientUnits="userSpaceOnUse">
<stop stop-color="#5383FF"/>
<stop offset="1" stop-color="#00C2FF"/>
</linearGradient>
<linearGradient id="paint1_linear_115_114" x1="26.4106" y1="8.36426" x2="37.3636" y2="23.7226" gradientUnits="userSpaceOnUse">
<stop stop-color="#5383FF"/>
<stop offset="1" stop-color="#00C2FF"/>
</linearGradient>
<linearGradient id="paint2_linear_115_114" x1="21.9186" y1="13.6495" x2="25.2201" y2="20.8298" gradientUnits="userSpaceOnUse">
<stop stop-color="#5383FF"/>
<stop offset="1" stop-color="#00C2FF"/>
</linearGradient>
<linearGradient id="paint3_linear_115_114" x1="15.9628" y1="3.00024" x2="23.7715" y2="16.6975" gradientUnits="userSpaceOnUse">
<stop stop-color="#5383FF"/>
<stop offset="1" stop-color="#00C2FF"/>
</linearGradient>
<linearGradient id="paint4_linear_115_114" x1="17.9999" y1="0" x2="33.8252" y2="48.0961" gradientUnits="userSpaceOnUse">
<stop stop-color="#5383FF"/>
<stop offset="1" stop-color="#00C2FF"/>
</linearGradient>
<clipPath id="clip0_115_114">
<rect width="36" height="36" fill="white"/>
</clipPath>
</defs>
</svg>
