<svg width="38" height="38" viewBox="0 0 38 38" fill="none" xmlns="http://www.w3.org/2000/svg">
<path d="M32.433 5.56294C25.012 -1.85588 12.9818 -1.8541 5.56294 5.56702C-1.85588 12.9882 -1.8541 25.0183 5.56702 32.4371C12.9882 39.8559 25.0183 39.8541 32.4371 32.433C36 28.8689 38.0011 24.0355 38 18.9959C37.999 13.9572 35.9965 9.12529 32.433 5.56294ZM28.7748 26.4668C28.774 26.4676 28.7732 26.4685 28.7723 26.4693V26.463L27.8096 27.4193C26.5646 28.6801 24.7514 29.1988 23.0279 28.7873C21.2916 28.3225 19.641 27.5827 18.1386 26.596C16.7429 25.704 15.4494 24.6612 14.2816 23.4863C13.2072 22.4197 12.2419 21.2485 11.3999 19.9903C10.479 18.6364 9.75014 17.1615 9.23395 15.6076C8.6422 13.7821 9.13256 11.7791 10.5006 10.4333L11.6279 9.30601C11.9414 8.99118 12.4507 8.99006 12.7654 9.30349C12.7662 9.30431 12.7671 9.30512 12.7679 9.30601L16.3273 12.8653C16.6421 13.1787 16.6432 13.688 16.3298 14.0028C16.329 14.0036 16.3281 14.0044 16.3273 14.0053L14.2373 16.0953C13.6376 16.6885 13.5622 17.631 14.0599 18.312C14.8159 19.3494 15.6524 20.3256 16.5616 21.2317C17.5754 22.2498 18.6775 23.176 19.8549 23.9994C20.5353 24.4739 21.4577 24.3939 22.0462 23.8094L24.0666 21.7574C24.38 21.4425 24.8893 21.4414 25.204 21.7549C25.2048 21.7557 25.2057 21.7565 25.2066 21.7574L28.7722 25.3294C29.0872 25.6427 29.0883 26.1519 28.7748 26.4668Z" fill="url(#paint0_linear_208_468)"/>
<defs>
<linearGradient id="paint0_linear_208_468" x1="19" y1="0" x2="35.7044" y2="50.7682" gradientUnits="userSpaceOnUse">
<stop stop-color="#5383FF"/>
<stop offset="1" stop-color="#00C2FF"/>
</linearGradient>
</defs>
</svg>
