<svg width="20" height="20" viewBox="0 0 20 20" fill="none" xmlns="http://www.w3.org/2000/svg">
<path fill-rule="evenodd" clip-rule="evenodd" d="M10 19.375C15.1777 19.375 19.375 15.1777 19.375 10C19.375 4.82234 15.1777 0.625 10 0.625C4.82234 0.625 0.625 4.82234 0.625 10C0.625 15.1777 4.82234 19.375 10 19.375ZM11.7883 10.8559C11.2439 11.2061 10.8109 11.4848 10.8239 12.8912C10.8279 13.3952 10.4225 13.807 9.91852 13.8109C9.41449 13.8149 9.0027 13.4095 8.99875 12.9055C8.97629 10.4908 9.78453 9.9707 10.8005 9.31695C11.0391 9.16344 11.2947 8.99895 11.527 8.78469C11.8581 8.47918 12.0932 8.15371 12.2427 7.82684C12.3964 7.4907 12.4621 7.15043 12.4507 6.82883C12.4256 6.12094 12.005 5.58785 11.4273 5.28711C11.0927 5.11289 10.7118 5.0123 10.3228 4.9943C9.92734 4.97598 9.52289 5.04055 9.14809 5.19691C8.37984 5.51746 7.73031 6.24914 7.53633 7.48105C7.45926 7.97914 6.99297 8.32043 6.49488 8.24336C5.9968 8.16629 5.65551 7.7 5.73258 7.20195C6.0409 5.24371 7.13824 4.05359 8.4466 3.50773C9.07246 3.2466 9.74539 3.13871 10.4015 3.1691C11.0639 3.19984 11.7089 3.36926 12.2719 3.66234C13.4014 4.25039 14.2246 5.31996 14.2759 6.76441C14.297 7.36027 14.1794 7.9818 13.9032 8.58555C13.6546 9.12914 13.2799 9.65547 12.7653 10.1304C12.418 10.4506 12.0923 10.6602 11.7883 10.8559ZM9.91852 14.837C10.4705 14.837 10.918 15.2845 10.918 15.8365C10.918 16.3884 10.4705 16.8359 9.91852 16.8359C9.36652 16.8359 8.91906 16.3884 8.91906 15.8365C8.91902 15.2845 9.36652 14.837 9.91852 14.837Z" fill="#3B3B3B"/>
</svg>
