<svg width="36" height="36" viewBox="0 0 36 36" fill="none" xmlns="http://www.w3.org/2000/svg">
<g clip-path="url(#clip0_115_86)">
<path d="M9.36429 22.8345C8.8142 22.2847 8.60704 22.561 8.48469 22.6834C5.31704 25.8511 2.50485 33.4941 3.99154 32.7476C9.40366 30.0302 10.3054 30.8392 13.473 27.6718C13.5954 27.5494 13.877 27.3475 13.3109 26.7813L9.36429 22.8345Z" fill="url(#paint0_linear_115_86)"/>
<path d="M26.4407 22.7921C26.2971 22.3353 26.5979 22.1151 26.7244 21.9785C33.7157 14.4305 38.159 4.37419 34.8663 1.08127C31.5909 -2.19392 21.8447 2.37918 14.2988 9.32008C14.1495 9.45757 13.8553 9.71795 13.3289 9.60804L10.9779 9.04822C10.3251 8.89299 9.4028 9.15391 8.92834 9.62838L0.301711 18.2549C-0.172757 18.7295 -0.0186034 19.203 0.644309 19.307L6.88367 20.2876C7.54658 20.3918 8.47713 20.0888 8.95149 19.6143C8.95149 19.6143 9.27342 19.2915 9.59687 19.6148C11.3814 21.3991 14.6974 24.7152 16.3976 26.4154C16.7355 26.7532 16.4118 27.0746 16.4118 27.0746C15.9373 27.5492 15.6344 28.4795 15.7387 29.1425L16.7191 35.3818C16.8232 36.0449 17.2967 36.1991 17.7712 35.7245L26.3979 27.0978C26.8723 26.6233 27.1333 25.7012 26.9779 25.0485L26.4407 22.7921ZM24.5093 11.6471C23.0481 10.1859 23.0481 7.81716 24.5093 6.35623C25.9703 4.89507 28.3391 4.89507 29.8003 6.35623C31.2613 7.81706 31.2613 10.1859 29.8003 11.647C28.3391 13.1081 25.9702 13.1081 24.5093 11.6471Z" fill="url(#paint1_linear_115_86)"/>
</g>
<defs>
<linearGradient id="paint0_linear_115_86" x1="8.61734" y1="22.5048" x2="13.223" y2="36.1971" gradientUnits="userSpaceOnUse">
<stop stop-color="#5383FF"/>
<stop offset="1" stop-color="#00C2FF"/>
</linearGradient>
<linearGradient id="paint1_linear_115_86" x1="18" y1="0" x2="33.8439" y2="48.0824" gradientUnits="userSpaceOnUse">
<stop stop-color="#5383FF"/>
<stop offset="1" stop-color="#00C2FF"/>
</linearGradient>
<clipPath id="clip0_115_86">
<rect width="36" height="36" fill="white"/>
</clipPath>
</defs>
</svg>
