<svg width="24" height="24" viewBox="0 0 24 24" fill="none" xmlns="http://www.w3.org/2000/svg">
<g clip-path="url(#clip0_115_123)">
<path d="M23.28 12.3382C23.4945 12.0446 23.6468 11.7102 23.7274 11.3557C23.8081 11.0011 23.8155 10.6339 23.7491 10.2764C23.6885 9.91637 23.5558 9.57234 23.3589 9.26491C23.1621 8.95747 22.9052 8.69297 22.6036 8.48726L21.0109 7.40726C20.9447 7.36166 20.8897 7.30165 20.85 7.23174C20.8103 7.16183 20.787 7.08384 20.7818 7.00363L20.64 5.09454C20.6144 4.73061 20.5151 4.37569 20.3482 4.05128C20.1813 3.72687 19.9503 3.43973 19.6691 3.20726C19.3902 2.97182 19.0669 2.79454 18.7185 2.68588C18.37 2.57722 18.0033 2.53936 17.64 2.57454L15.7418 2.7709C15.6596 2.78167 15.576 2.77242 15.4981 2.74393C15.4202 2.71544 15.3504 2.66855 15.2945 2.60726L13.9527 1.23272C13.6978 0.973608 13.3939 0.767825 13.0586 0.627358C12.7233 0.486892 12.3635 0.414551 12 0.414551C11.6365 0.414551 11.2766 0.486892 10.9414 0.627358C10.6061 0.767825 10.3022 0.973608 10.0473 1.23272L8.70545 2.60726C8.64959 2.66855 8.57975 2.71544 8.50188 2.74393C8.424 2.77242 8.3404 2.78167 8.25818 2.7709L6.36 2.57454C5.997 2.54012 5.63079 2.57826 5.28268 2.68673C4.93457 2.7952 4.61152 2.97184 4.33233 3.20636C4.05314 3.44088 3.82339 3.7286 3.65646 4.05276C3.48953 4.37692 3.38875 4.73105 3.36 5.09454L3.21818 7.00363C3.21197 7.08634 3.18716 7.16657 3.1456 7.23836C3.10404 7.31014 3.04681 7.3716 2.97818 7.41817L1.39636 8.49817C1.09673 8.70336 0.841081 8.96631 0.644397 9.27159C0.447713 9.57687 0.313952 9.91834 0.250957 10.276C0.187962 10.6336 0.197001 11.0003 0.277542 11.3544C0.358084 11.7085 0.508508 12.043 0.719996 12.3382L1.84363 13.8982C1.89093 13.9655 1.92237 14.0427 1.93559 14.124C1.94882 14.2052 1.94348 14.2884 1.92 14.3673L1.39636 16.2109C1.29937 16.5623 1.27353 16.9296 1.32036 17.2911C1.36719 17.6527 1.48575 18.0012 1.66909 18.3164C1.85057 18.6319 2.09387 18.9076 2.38441 19.1269C2.67496 19.3462 3.00678 19.5047 3.36 19.5927L5.21454 20.0618C5.29393 20.0818 5.36767 20.1197 5.43009 20.1726C5.49251 20.2256 5.54193 20.2922 5.57454 20.3673L6.36 22.1127C6.50887 22.446 6.72316 22.7459 6.99015 22.9948C7.25713 23.2437 7.57138 23.4364 7.91425 23.5615C8.25712 23.6867 8.62163 23.7417 8.98616 23.7233C9.35069 23.7049 9.70782 23.6135 10.0364 23.4545L11.76 22.6254C11.8344 22.5878 11.9166 22.5682 12 22.5682C12.0834 22.5682 12.1656 22.5878 12.24 22.6254L13.9636 23.4545C14.3302 23.6347 14.7334 23.728 15.1418 23.7273C15.4616 23.727 15.779 23.6716 16.08 23.5636C16.4233 23.4374 16.738 23.2441 17.0058 22.995C17.2737 22.7459 17.4892 22.446 17.64 22.1127L18.4254 20.3673C18.4581 20.2922 18.5075 20.2256 18.5699 20.1726C18.6323 20.1197 18.7061 20.0818 18.7854 20.0618L20.64 19.5927C20.9932 19.5038 21.3249 19.3449 21.6155 19.1254C21.9061 18.9059 22.1496 18.6303 22.3317 18.3149C22.5138 17.9995 22.6308 17.6508 22.6756 17.2894C22.7204 16.9279 22.6923 16.5612 22.5927 16.2109L22.08 14.3673C22.0565 14.2884 22.0512 14.2052 22.0644 14.124C22.0776 14.0427 22.1091 13.9655 22.1564 13.8982L23.28 12.3382ZM16.9855 10.3091L11.9236 15.3709C11.4702 15.8182 10.8588 16.0691 10.2218 16.0691C9.58483 16.0691 8.97346 15.8182 8.52 15.3709L7.01454 13.8654C6.90306 13.7558 6.81451 13.6251 6.75407 13.4808C6.69363 13.3366 6.6625 13.1818 6.6625 13.0254C6.6625 12.8691 6.69363 12.7143 6.75407 12.5701C6.81451 12.4258 6.90306 12.2951 7.01454 12.1854C7.23867 11.9652 7.54032 11.8418 7.85454 11.8418C8.16876 11.8418 8.47042 11.9652 8.69454 12.1854L10.2 13.6909L15.3164 8.62908C15.5391 8.40775 15.8407 8.28398 16.1548 8.285C16.4688 8.28602 16.7696 8.41175 16.9909 8.63453C17.2122 8.85732 17.336 9.1589 17.335 9.47294C17.334 9.78698 17.2082 10.0877 16.9855 10.3091Z" fill="#1B6FDD"/>
</g>
<defs>
<clipPath id="clip0_115_123">
<rect width="24" height="24" fill="white"/>
</clipPath>
</defs>
</svg>
