<svg width="25" height="26" viewBox="0 0 25 26" fill="none" xmlns="http://www.w3.org/2000/svg">
<path d="M23.9583 13.521C23.9115 14.547 23.7292 15.5366 23.4323 16.4741L19.8021 14.7345C19.8333 14.3387 19.8542 13.9325 19.8646 13.521H23.9583Z" fill="white"/>
<path d="M1.04167 13.5229H5.13334C5.16823 14.9683 5.34844 16.35 5.64844 17.6302H2.00261C1.44428 16.3636 1.10678 14.9787 1.04167 13.5229Z" fill="white"/>
<path d="M2.00261 8.36963H5.64844C5.34844 9.64984 5.16876 11.0316 5.13334 12.4769H1.04167C1.10678 11.0212 1.4448 9.6363 2.00261 8.36963Z" fill="white"/>
<path d="M13.0213 7.32432V1.5415C15.1562 1.85921 16.9943 4.10817 18.0031 7.32432H13.0213Z" fill="white"/>
<path d="M18.2937 8.36963C18.6021 9.6363 18.788 11.0212 18.824 12.4769H13.0213V8.36963H18.2937Z" fill="white"/>
<path d="M11.9786 1.5415V7.32432H6.99687C8.00625 4.10869 9.84375 1.85973 11.9786 1.5415Z" fill="white"/>
<path d="M11.9786 8.36963V12.4769H6.17552C6.21146 11.0212 6.39792 9.6363 6.70573 8.36963H11.9781H11.9786Z" fill="white"/>
<path d="M6.17552 13.5229H11.9781V17.6302H6.70625C6.39844 16.3636 6.21146 14.9787 6.17552 13.5229Z" fill="white"/>
<path d="M11.9786 18.6753V24.4581C9.84323 24.1399 8.00573 21.8909 6.99687 18.6753H11.9786Z" fill="white"/>
<path d="M15.6094 23.0158C14.8333 23.8127 13.9531 24.3231 13.0208 24.4585V18.6772H15.0052L15.3646 22.3179C15.3906 22.5731 15.4792 22.8127 15.6094 23.0158Z" fill="white"/>
<path d="M13.0208 13.521H15.1979C15.1354 13.5679 15.0781 13.6252 15.026 13.6825C14.7292 14.0054 14.5833 14.4429 14.6302 14.8856L14.901 17.6304H13.0208V13.521Z" fill="white"/>
<path d="M18.8229 13.521C18.8177 13.7658 18.8073 14.0106 18.7917 14.2502L17.2708 13.521H18.8229Z" fill="white"/>
<path d="M19.8667 12.4769C19.8318 11.0316 19.6516 9.64932 19.3516 8.36963H22.9974C23.5557 9.6363 23.8932 11.0212 23.9583 12.4769H19.8667Z" fill="white"/>
<path d="M22.4708 7.32428H19.0729C18.4167 5.13262 17.3932 3.3123 16.1406 2.09668C18.8344 3.00345 21.0839 4.88574 22.4708 7.32428Z" fill="white"/>
<path d="M8.85885 2.09668C7.60624 3.3123 6.58333 5.13262 5.92656 7.32428H2.52916C3.91562 4.88574 6.16458 3.00345 8.85885 2.09668Z" fill="white"/>
<path d="M2.52864 18.6753H5.92656C6.58281 20.867 7.60625 22.6878 8.85885 23.9029C6.16458 22.9961 3.9151 21.1138 2.52864 18.6753Z" fill="white"/>
<path d="M23.1422 17.4923L16.4094 14.2601C16.0432 14.0845 15.6255 14.3767 15.6656 14.7809L16.4 22.2132C16.4443 22.6616 16.9984 22.846 17.3026 22.5137L18.6766 21.0132L20.2698 23.2887C20.6 23.7601 21.2495 23.8746 21.7203 23.5444L22.5734 22.947C23.0448 22.6168 23.1594 21.9673 22.8292 21.4965L21.2359 19.221L23.1161 18.4434C23.5323 18.271 23.5479 17.6877 23.1422 17.4923Z" fill="white"/>
</svg>
