<svg width="59" height="32" viewBox="0 0 59 32" fill="none" xmlns="http://www.w3.org/2000/svg">
<path fill-rule="evenodd" clip-rule="evenodd" d="M3.11699 28.3281C2.82256 27.7436 2.74786 27.012 2.38325 26.4906C2.05471 26.0383 1.60303 25.7694 1.40232 25.2269C1.01863 23.7729 -0.297864 22.4104 0.0614954 21.1094C0.287603 20.9539 0.976987 21.0972 1.17657 21.0654C2.10636 20.968 3.41332 20.8469 3.68947 19.8259C3.93515 18.9327 3.17135 18.3691 3.23905 17.4167C3.28959 17.0366 3.59367 16.786 3.67207 16.4087C3.54767 14.7409 3.82842 14.7383 4.57315 13.5654C5.04989 12.958 4.87783 12.3145 5.48584 11.7285C7.78164 9.91475 9.43542 10.6967 9.98025 10.3262C12.3873 8.73486 12.8921 6.58092 14.1135 7.11856C15.0094 7.45214 15.5162 8.78743 15.3092 9.69568C15.1526 10.4815 14.0738 11.0674 13.6128 10.0188C13.5109 9.97693 13.0693 10.072 13.0225 10.1665C12.7703 10.3837 12.8883 10.781 13.144 11.1449C13.9432 12.307 15.6417 12.1808 16.6636 12.1696C19.323 12.0074 18.6901 12.3994 19.6899 12.6068C19.9304 12.6087 20.3716 12.2921 20.718 12.1931C21.3193 12.1041 21.9868 12.1649 22.4927 12.725C23.1086 12.8749 23.8249 11.149 24.5148 11.0734C25.9791 10.8942 25.7153 12.723 27.9596 11.5873C29.0865 11.1032 29.085 11.0389 29.5104 10.4488C29.9187 9.97185 30.6031 9.83751 31.1284 9.50692C33.0099 7.90738 32.5077 7.92893 34.4055 8.53031C34.9823 8.64268 35.1368 8.87881 35.1694 9.31573C35.125 10.2397 35.1448 10.9003 36.2586 11.0563C36.8032 11.0483 37.2955 10.5936 38.0054 10.7728C39.0033 10.9572 39.8637 11.7848 40.9028 11.7294C41.9712 11.0874 42.5445 8.50587 43.7269 8.26567C44.3162 8.15585 44.9235 8.33482 45.4759 7.95779C48.1348 5.91649 47.3208 7.11602 48.6734 6.29958C49.0814 5.98583 49.2362 5.60134 49.3957 5.17146C49.9369 2.98174 52.0735 2.51413 53.564 1.32118C53.8568 1.0119 54.0251 0.520854 54.266 0.223309C54.7615 -0.523028 55.7307 0.804808 55.8657 1.23628C55.7742 1.63299 55.4671 1.80317 55.2487 2.06446C52.8855 4.57626 55.2636 3.94777 56.0196 4.75521C56.2688 5.21504 56.3179 6.16899 56.405 7.04404C56.6629 8.86714 55.3342 10.1298 55.9573 11.2293C56.2952 11.8261 56.895 12.3708 57.2046 12.7798C57.859 13.6229 58.3754 14.7776 58.6572 15.8664C59.2908 18.8066 58.9463 17.6698 58.4288 17.3472C57.3049 16.3794 56.1732 16.8877 55.4716 15.9252C54.568 14.6403 55.1986 12.9514 55.1128 12.6191C54.0592 10.1379 52.4705 12.1957 52.6928 13.1292C52.8087 13.5131 53.2573 14.1627 53.2888 14.6591C53.3195 15.465 52.1149 15.862 51.6258 16.2824C50.7608 17.0019 48.7733 18.5564 49.1875 19.4826C49.6106 20.5309 49.1261 21.0017 48.9305 21.6436C48.7215 22.0678 49.8352 22.1592 49.9935 22.0486C50.3952 21.9194 50.8582 21.6041 51.2568 21.7296C52.0793 22.0316 52.9036 23.1124 53.1001 23.6271C53.9417 26.2366 54.6862 28.457 53.7286 30.2436C53.307 30.8697 52.7957 31.8784 52.3233 32C51.5601 31.9547 50.5795 31.3777 50.7767 30.8012C50.9393 30.0222 52.1676 29.1005 51.5073 28.2106C51.3188 27.941 51.0389 27.9044 50.7391 27.9562C49.3581 28.4039 49.1568 28.3094 48.1307 28.0178C45.6634 27.6594 46.5406 25.0219 43.3845 26.3955C42.7765 26.7738 43.4746 27.3284 43.384 27.7771C43.2996 28.1306 43.0933 28.3175 43.0113 28.6947C42.8376 29.33 42.8894 29.7182 42.2616 30.0366C41.6491 30.3274 41.1554 30.2715 40.6226 30.4321C38.3029 31.5641 38.731 31.4208 36.5608 30.4701C35.2399 29.9606 34.8042 31.0843 34.361 30.7852C33.8537 30.4064 33.4816 30.073 32.8986 29.9454C31.6569 29.6718 32.2386 31.4616 31.475 31.4427C30.6823 31.4424 29.9433 30.9242 29.3789 31.0329C26.0924 31.9818 27.7578 31.1952 25.8108 31.1124C25.6093 31.0958 25.5191 31.065 25.3559 30.9288C24.4384 29.9927 24.3494 30.2472 23.5062 29.9771C22.3825 29.4733 22.8456 27.7714 22.1412 27.017C21.7441 26.5686 21.0389 26.4542 20.5193 26.1325C20.2014 25.9788 20.0902 25.6024 19.9269 25.3224C19.3559 24.6627 18.0113 24.6077 17.1861 24.4578C15.4711 24.1609 15.0441 23.842 14.2433 25.3997C14.1883 25.6066 14.1251 26.0191 14.0503 26.0284C13.8447 26.0669 12.9455 25.5831 12.7823 25.559C9.81422 24.7517 11.0806 23.9304 9.6826 22.9138C8.50396 22.2578 6.6946 22.9084 6.23037 23.8707C5.97716 24.2919 6.21978 25.0383 5.9774 25.5499C5.51907 26.1825 4.8233 25.4538 4.31395 26.2425C3.87067 26.8205 3.46238 27.8909 3.11699 28.3281Z" fill="url(#paint0_linear_113_72)"/>
<defs>
<linearGradient id="paint0_linear_113_72" x1="29.5" y1="0" x2="37.6945" y2="45.9183" gradientUnits="userSpaceOnUse">
<stop stop-color="#5383FF"/>
<stop offset="1" stop-color="#00C2FF"/>
</linearGradient>
</defs>
</svg>
